<?xml version="1.0" standalone="no"?>
<!DOCTYPE svg PUBLIC "-//W3C//DTD SVG 20010904//EN"
 "http://www.w3.org/TR/2001/REC-SVG-20010904/DTD/svg10.dtd">
<svg version="1.0" xmlns="http://www.w3.org/2000/svg"
 viewBox="0 0 1280.000000 1153.000000"
 preserveAspectRatio="xMidYMid meet">
<metadata>
Created by potrace 1.15, written by Peter Selinger 2001-2017
</metadata>
<g transform="translate(0.000000,1153.000000) scale(0.100000,-0.100000)"
fill="#566573" stroke="none">
<path d="M2949 11502 c-99 -64 -251 -258 -379 -486 -86 -151 -153 -242 -285
-385 -52 -57 -100 -112 -106 -122 -8 -16 -13 -17 -31 -8 -62 33 -266 -3 -467
-83 -40 -16 -74 -27 -75 -26 -25 46 -171 204 -231 250 -22 17 -12 5 23 -27 34
-31 92 -95 129 -142 63 -81 66 -86 48 -99 -10 -8 -26 -14 -34 -15 -9 0 -25 -3
-36 -6 -11 -3 -62 -8 -113 -10 -137 -6 -204 16 -302 103 -505 446 -708 571
-873 540 -89 -17 -186 -160 -208 -306 -27 -177 15 -509 85 -670 14 -30 32 -95
41 -144 27 -152 77 -266 148 -344 20 -21 21 -33 18 -132 -4 -131 11 -189 70
-280 23 -36 60 -103 82 -148 36 -78 39 -91 42 -185 2 -56 6 -119 10 -140 6
-30 5 -36 -7 -32 -12 5 -17 -25 -27 -172 -15 -215 -8 -287 51 -512 41 -156 54
-226 84 -421 13 -91 14 -134 3 -330 -18 -330 9 -641 66 -777 23 -52 95 -473
95 -550 0 -35 4 -63 8 -63 5 0 16 -62 26 -137 41 -323 101 -619 151 -753 17
-47 30 -117 44 -250 18 -163 97 -869 220 -1954 l39 -348 -50 -217 c-27 -119
-51 -231 -54 -249 -2 -18 -9 -42 -14 -52 -14 -27 -85 -65 -145 -79 -88 -21
-128 -52 -178 -138 -25 -43 -48 -94 -52 -113 -4 -19 -16 -61 -27 -92 -39 -108
-7 -216 75 -256 14 -7 35 -25 46 -41 33 -46 69 -55 174 -45 51 4 144 8 208 8
111 1 117 2 152 29 22 17 54 30 77 32 107 11 194 59 240 132 17 26 30 52 30
57 0 6 7 24 15 40 8 15 12 32 9 37 -3 5 7 25 23 46 20 27 29 52 34 97 4 34 14
92 22 131 9 38 19 143 23 232 5 123 10 160 20 156 19 -7 38 112 26 167 -6 25
-3 52 11 95 52 168 259 1077 252 1109 -2 11 8 72 23 135 l28 115 68 -105 c94
-143 184 -256 292 -369 l91 -95 37 -153 c35 -141 78 -280 139 -444 l25 -68
-58 0 c-78 0 -179 -33 -236 -76 -26 -20 -67 -45 -93 -56 -90 -38 -163 -135
-161 -215 0 -26 -2 -61 -6 -78 -7 -27 -6 -29 9 -16 12 9 17 10 17 2 0 -7 20
-33 44 -59 25 -26 48 -60 51 -75 11 -41 60 -78 103 -76 21 0 59 -6 86 -13 32
-10 64 -12 95 -7 32 5 70 1 126 -12 141 -33 266 -23 334 29 l34 25 -8 -54 c-5
-30 -8 -88 -6 -129 2 -41 4 -194 5 -340 l1 -265 -29 -93 c-26 -82 -32 -92 -53
-92 -43 0 -103 -39 -119 -75 -8 -19 -14 -43 -14 -54 0 -11 -23 -55 -50 -98
-28 -43 -53 -94 -57 -113 -3 -19 -17 -65 -30 -102 -26 -78 -29 -115 -9 -161
15 -34 72 -97 88 -97 6 0 27 -18 47 -39 50 -56 104 -69 208 -52 43 7 130 11
193 9 115 -3 115 -3 160 28 29 21 68 36 110 44 87 16 141 43 189 95 41 45 63
87 76 145 4 18 21 51 37 75 27 38 31 54 39 152 5 61 13 151 19 199 5 49 10 94
10 99 0 6 9 -4 20 -22 23 -38 86 -73 132 -73 18 0 67 9 108 20 41 12 136 27
210 35 200 21 331 67 450 160 91 70 503 251 685 300 125 34 229 45 482 51 126
3 246 11 286 19 142 29 264 125 336 265 22 42 48 83 56 90 23 19 43 60 60 127
14 49 14 73 4 161 l-12 102 33 42 c39 48 59 98 60 149 l0 35 112 49 c185 81
246 128 317 247 31 51 42 60 104 88 95 43 222 75 369 94 67 9 172 23 231 31
65 9 162 32 245 59 196 63 407 110 699 156 431 67 588 81 963 89 382 9 370 7
783 117 429 114 659 171 812 200 136 26 166 29 320 25 387 -8 518 -5 588 12
97 24 178 69 254 140 l66 63 -19 30 c-111 175 -306 284 -611 339 -49 9 -164
19 -258 22 -167 5 -201 13 -191 40 3 8 -2 13 -13 13 -29 0 -142 -37 -232 -75
-44 -19 -83 -35 -85 -35 -2 0 -1 18 2 40 7 45 8 45 -43 25 -56 -22 -192 -55
-226 -55 -17 0 -53 -11 -81 -25 -31 -15 -91 -31 -156 -40 -58 -9 -125 -21
-150 -27 -120 -28 -174 -38 -283 -49 -109 -12 -118 -11 -130 5 -12 16 -17 17
-72 2 -74 -19 -255 -42 -440 -56 -77 -5 -173 -13 -213 -16 l-74 -5 16 23 c9
12 16 26 16 29 0 4 -28 -2 -62 -12 -35 -11 -107 -26 -161 -35 -135 -20 -207
-6 -207 41 0 50 -8 55 -53 30 -57 -32 -132 -52 -292 -79 l-137 -23 -27 22 -26
23 -70 -23 c-112 -37 -383 -75 -536 -75 -32 0 -85 -10 -127 -24 -138 -47 -407
-76 -566 -61 l-77 7 7 31 c14 64 7 558 -10 717 -88 829 -400 1626 -893 2286
-505 675 -1141 1103 -1729 1164 -78 8 -132 22 -264 69 -91 33 -205 71 -255 86
-49 15 -147 56 -216 91 -120 60 -129 66 -177 131 -53 72 -172 192 -209 212
-13 6 -41 39 -64 72 -31 46 -39 66 -35 85 14 55 85 5 307 -216 97 -96 163
-157 146 -135 -17 22 -97 106 -178 188 -80 81 -143 147 -140 147 18 0 302
-149 379 -199 51 -34 91 -57 87 -51 -21 33 -292 191 -440 255 -108 47 -145 72
-145 98 0 17 5 19 39 13 58 -9 300 -89 493 -162 94 -36 172 -63 174 -61 11 11
-518 204 -693 253 -7 2 -13 11 -13 20 0 33 293 2 425 -46 85 -30 92 -31 39 -5
-75 37 -192 64 -331 77 -131 13 -131 13 -117 66 6 20 12 22 74 22 38 0 104 -5
147 -11 80 -11 121 -30 296 -143 31 -20 57 -34 57 -31 0 3 -48 37 -107 76 -60
39 -110 72 -111 74 -2 2 31 -5 73 -16 117 -30 100 -16 -22 18 -60 17 -145 47
-191 68 -53 23 -105 39 -143 42 -60 6 -64 9 -53 51 8 27 21 27 138 7 106 -19
183 -44 304 -100 50 -24 92 -42 92 -39 0 3 -51 30 -114 60 -125 60 -278 104
-362 104 l-54 0 0 173 c0 162 -15 314 -40 407 -7 26 -33 61 -76 106 l-65 67
15 31 c13 27 13 33 -1 48 -14 16 -13 18 13 23 51 12 50 15 -2 12 -48 -4 -55
-1 -110 42 -59 46 -59 46 -50 84 8 29 6 45 -8 75 -10 20 -20 45 -22 55 -1 10
-14 46 -28 81 -50 125 -56 273 -21 506 15 93 35 259 56 450 21 184 -8 300 -75
300 -12 0 -42 -13 -67 -28z m614 -2553 c75 -25 106 -43 61 -34 -17 3 -71 7
-120 10 -56 2 -89 7 -88 14 1 6 2 16 3 21 2 17 78 11 144 -11z"/>
<path d="M3224 10334 c-18 -14 -18 -15 4 -4 12 6 22 13 22 15 0 8 -5 6 -26
-11z"/>
<path d="M3137 10278 c-31 -23 -55 -44 -52 -46 3 -3 57 36 110 80 28 24 -8 2
-58 -34z"/>
<path d="M3970 8896 c0 -3 9 -10 20 -16 11 -6 20 -8 20 -6 0 3 -9 10 -20 16
-11 6 -20 8 -20 6z"/>
<path d="M10198 2913 c6 -2 18 -2 25 0 6 3 1 5 -13 5 -14 0 -19 -2 -12 -5z"/>
<path d="M10038 2893 c7 -3 16 -2 19 1 4 3 -2 6 -13 5 -11 0 -14 -3 -6 -6z"/>
<path d="M9868 2873 c6 -2 18 -2 25 0 6 3 1 5 -13 5 -14 0 -19 -2 -12 -5z"/>
<path d="M9708 2853 c7 -3 16 -2 19 1 4 3 -2 6 -13 5 -11 0 -14 -3 -6 -6z"/>
<path d="M9548 2833 c7 -3 16 -2 19 1 4 3 -2 6 -13 5 -11 0 -14 -3 -6 -6z"/>
<path d="M9423 2823 c9 -2 23 -2 30 0 6 3 -1 5 -18 5 -16 0 -22 -2 -12 -5z"/>
<path d="M9318 2813 c6 -2 18 -2 25 0 6 3 1 5 -13 5 -14 0 -19 -2 -12 -5z"/>
<path d="M8449 2453 c-13 -16 -12 -17 4 -4 16 13 21 21 13 21 -2 0 -10 -8 -17
-17z"/>
<path d="M8175 2188 l-50 -53 53 50 c48 46 57 55 49 55 -1 0 -25 -24 -52 -52z"/>
<path d="M8009 2033 l-24 -28 28 24 c15 14 27 26 27 28 0 8 -8 1 -31 -24z"/>
<path d="M7909 1943 l-24 -28 28 24 c15 14 27 26 27 28 0 8 -8 1 -31 -24z"/>
<path d="M7809 1853 c-13 -16 -12 -17 4 -4 16 13 21 21 13 21 -2 0 -10 -8 -17
-17z"/>
<path d="M7734 1788 l-19 -23 23 19 c12 11 22 21 22 23 0 8 -8 2 -26 -19z"/>
<path d="M7659 1723 c-13 -16 -12 -17 4 -4 9 7 17 15 17 17 0 8 -8 3 -21 -13z"/>
<path d="M7599 1673 c-13 -16 -12 -17 4 -4 16 13 21 21 13 21 -2 0 -10 -8 -17
-17z"/>
<path d="M7539 1623 c-13 -16 -12 -17 4 -4 16 13 21 21 13 21 -2 0 -10 -8 -17
-17z"/>
<path d="M1705 540 c27 -27 51 -50 54 -50 3 0 -17 23 -44 50 -27 28 -51 50
-54 50 -3 0 17 -22 44 -50z"/>
<path d="M2778 73 c7 -3 16 -2 19 1 4 3 -2 6 -13 5 -11 0 -14 -3 -6 -6z"/>
<path d="M2858 63 c7 -3 16 -2 19 1 4 3 -2 6 -13 5 -11 0 -14 -3 -6 -6z"/>
<path d="M2918 53 c7 -3 16 -2 19 1 4 3 -2 6 -13 5 -11 0 -14 -3 -6 -6z"/>
<path d="M4598 53 c6 -2 18 -2 25 0 6 3 1 5 -13 5 -14 0 -19 -2 -12 -5z"/>
<path d="M3018 43 c7 -3 16 -2 19 1 4 3 -2 6 -13 5 -11 0 -14 -3 -6 -6z"/>
<path d="M4458 43 c6 -2 18 -2 25 0 6 3 1 5 -13 5 -14 0 -19 -2 -12 -5z"/>
<path d="M4348 33 c12 -2 30 -2 40 0 9 3 -1 5 -23 4 -22 0 -30 -2 -17 -4z"/>
<path d="M3243 23 c9 -2 25 -2 35 0 9 3 1 5 -18 5 -19 0 -27 -2 -17 -5z"/>
<path d="M4148 23 c12 -2 30 -2 40 0 9 3 -1 5 -23 4 -22 0 -30 -2 -17 -4z"/>
<path d="M3388 13 c12 -2 32 -2 45 0 12 2 2 4 -23 4 -25 0 -35 -2 -22 -4z"/>
<path d="M3973 13 c15 -2 37 -2 50 0 12 2 0 4 -28 4 -27 0 -38 -2 -22 -4z"/>
</g>
</svg>
