<?xml version="1.0" standalone="no"?>
<!DOCTYPE svg PUBLIC "-//W3C//DTD SVG 20010904//EN"
 "http://www.w3.org/TR/2001/REC-SVG-20010904/DTD/svg10.dtd">
<svg version="1.0" xmlns="http://www.w3.org/2000/svg"
 viewBox="0 0 1280.000000 856.000000"
 preserveAspectRatio="xMidYMid meet">
<metadata>
Created by potrace 1.15, written by Peter Selinger 2001-2017
</metadata>
<g transform="translate(0.000000,856.000000) scale(0.100000,-0.100000)"
fill="#566573" stroke="none">
<path d="M4700 7790 c-84 -17 -155 -41 -174 -59 -12 -10 -26 -20 -32 -22 -6
-2 -37 -27 -68 -56 -39 -36 -58 -62 -63 -85 -6 -36 -30 -88 -39 -88 -4 0 -34
7 -68 16 -50 13 -91 15 -231 9 -93 -4 -173 -9 -176 -11 -4 -2 -52 -10 -108
-19 -229 -34 -387 -86 -513 -167 -68 -43 -115 -35 -180 29 -39 39 -59 49 -120
65 -74 19 -96 22 -248 36 -107 11 -220 -6 -315 -46 -88 -37 -119 -56 -181
-111 -52 -46 -146 -88 -227 -100 -61 -9 -112 -56 -120 -109 -23 -154 -39 -218
-65 -251 -28 -37 -39 -76 -23 -85 4 -3 30 2 56 10 37 13 69 39 152 125 58 60
114 111 125 115 22 7 223 -139 234 -169 3 -11 20 -25 38 -32 35 -15 56 -36 79
-80 26 -51 99 -117 161 -146 32 -15 64 -25 71 -23 17 7 137 -15 153 -28 7 -7
35 -8 71 -4 53 6 61 4 88 -18 16 -13 38 -46 50 -73 66 -146 92 -214 88 -231
-4 -22 29 -82 45 -82 14 0 56 -70 64 -105 15 -71 9 -200 -14 -285 -29 -105
-28 -183 2 -275 17 -52 28 -71 43 -74 11 -2 30 -14 42 -27 12 -13 27 -24 33
-24 7 0 9 -8 5 -20 -5 -15 -3 -18 9 -14 9 3 16 1 16 -5 0 -19 54 -38 101 -34
l47 3 11 -47 c11 -49 13 -66 12 -162 -1 -65 27 -120 78 -155 42 -29 140 -54
194 -49 39 4 168 62 199 90 16 14 22 12 20 -8 -1 -3 9 -11 21 -18 47 -25 67
-101 26 -101 -10 0 -26 -11 -35 -25 -15 -22 -14 -30 1 -97 9 -40 21 -78 27
-86 6 -7 12 -34 14 -60 1 -26 5 -81 10 -122 4 -41 7 -131 5 -200 -3 -205 11
-335 43 -401 14 -31 35 -103 47 -160 31 -162 61 -292 72 -314 6 -11 16 -51 24
-90 11 -61 11 -75 -3 -111 -15 -39 -15 -47 5 -120 11 -44 33 -119 49 -169 16
-49 38 -119 47 -155 10 -36 41 -119 68 -185 28 -66 76 -194 108 -285 31 -91
66 -190 77 -220 26 -72 47 -180 67 -363 18 -155 15 -242 -11 -331 -8 -27 -14
-62 -14 -77 0 -36 -50 -144 -89 -193 -17 -21 -31 -43 -31 -48 0 -5 -13 -28
-28 -51 -16 -23 -31 -50 -35 -59 -10 -28 20 -22 39 7 22 34 36 32 18 -3 -17
-33 -18 -47 -2 -72 10 -15 10 -28 -1 -62 -30 -101 -26 -118 16 -72 17 18 23
34 19 49 -7 29 16 52 33 32 6 -8 8 -17 4 -20 -8 -9 -13 -68 -7 -90 8 -27 31
-3 44 45 13 47 33 57 139 66 73 7 75 8 83 38 5 22 16 34 33 38 13 3 37 22 52
40 26 33 27 39 24 138 -1 69 3 123 14 165 9 34 15 68 14 75 -1 7 1 47 5 89 6
59 5 82 -7 105 -20 40 -29 110 -31 231 -1 89 -4 106 -23 130 -57 73 -94 189
-128 403 -7 47 -27 164 -43 260 -17 96 -35 215 -42 264 -6 48 -22 123 -34 165
-13 42 -32 115 -41 164 -16 77 -17 97 -5 175 19 130 47 209 81 230 28 18 72
-8 116 -69 34 -47 38 -50 69 -44 26 4 50 -3 123 -40 98 -51 165 -63 326 -61
65 1 91 6 138 29 32 15 61 27 65 27 8 -1 63 -73 83 -110 8 -14 28 -48 46 -77
18 -28 33 -54 33 -58 0 -3 13 -25 29 -48 40 -60 98 -220 106 -297 l7 -65 -67
-93 c-86 -120 -109 -135 -195 -127 -58 6 -68 4 -85 -15 -10 -11 -35 -30 -54
-42 -49 -29 -90 -67 -107 -100 -14 -28 -14 -28 19 -28 20 0 39 -7 50 -20 16
-19 39 -25 80 -20 9 1 42 -4 71 -10 47 -10 61 -8 112 10 32 11 69 20 82 20 34
0 58 15 82 55 15 24 20 44 16 60 -8 33 3 75 20 75 8 0 14 -2 14 -4 0 -2 5 -28
11 -57 9 -49 19 -180 35 -484 6 -109 6 -111 -25 -169 -28 -52 -30 -63 -21 -95
5 -20 10 -57 10 -83 0 -26 5 -59 10 -73 8 -20 6 -49 -6 -109 -32 -158 -35
-186 -24 -206 6 -11 17 -20 24 -20 12 0 19 -66 19 -170 -1 -42 -17 -167 -23
-180 -11 -20 13 -64 49 -89 21 -15 31 -32 33 -54 l3 -32 82 -7 c45 -4 90 -11
100 -17 10 -5 23 -29 28 -52 6 -23 17 -45 24 -47 11 -4 13 6 8 46 -3 29 -2 54
4 57 5 4 9 3 10 -2 4 -46 35 -123 49 -123 13 0 13 67 0 75 -5 3 -10 22 -10 41
0 37 41 94 67 94 17 0 16 11 -3 76 -9 31 -13 62 -10 70 3 9 -2 37 -12 62 -35
89 -62 181 -62 212 0 17 -11 63 -25 102 -36 103 -50 234 -30 291 13 38 13 56
-1 153 -40 288 -42 418 -8 664 12 92 17 193 16 384 l0 259 44 65 c24 35 44 74
44 86 0 13 -22 55 -50 95 -40 57 -50 81 -50 113 0 43 -28 78 -86 109 -35 18
-44 50 -44 158 0 38 -15 129 -36 222 l-37 158 46 93 c27 54 79 134 123 188 42
52 96 123 121 157 40 56 76 84 90 69 3 -3 14 -46 24 -95 10 -50 30 -113 44
-140 24 -48 27 -50 58 -44 40 7 79 27 96 47 18 21 50 20 57 -1 3 -10 23 -54
44 -98 44 -91 56 -129 65 -200 17 -142 32 -205 85 -375 32 -102 66 -212 75
-245 24 -85 31 -206 15 -256 -12 -35 -11 -48 3 -92 23 -73 37 -141 37 -176 0
-16 12 -72 26 -123 22 -76 27 -118 30 -233 4 -195 22 -341 47 -367 6 -8 17
-23 23 -33 6 -11 34 -31 62 -45 29 -14 52 -31 52 -37 0 -21 21 -15 27 7 7 25
45 28 41 4 -2 -10 3 -19 10 -21 7 -3 12 4 12 15 0 10 9 27 21 38 29 26 23 104
-16 212 -8 24 -24 61 -35 83 -11 21 -20 46 -20 55 0 9 -9 31 -20 50 -32 51
-71 218 -75 319 -2 50 -9 117 -15 150 -7 33 -9 83 -6 111 5 43 2 59 -20 100
-17 32 -24 58 -21 79 3 19 -4 46 -18 75 -51 101 -65 269 -36 430 26 147 32
431 12 615 -8 72 -13 153 -12 180 1 28 2 131 3 230 0 152 -3 193 -21 262 -35
135 -77 234 -126 293 -25 30 -66 91 -90 135 -83 147 -244 300 -410 389 -27 15
-66 35 -85 46 -35 19 -73 36 -144 64 -21 9 -59 16 -85 16 -25 1 -64 4 -86 8
-22 4 -107 4 -188 -1 -141 -8 -150 -7 -182 13 -19 12 -35 26 -35 30 0 5 -12
21 -26 37 -21 23 -33 27 -70 25 -27 -1 -43 2 -39 8 3 5 1 18 -4 29 -8 15 -17
17 -43 12 -18 -4 -48 -2 -67 5 -21 7 -47 8 -70 3 -39 -9 -71 -4 -71 12 0 6 -9
5 -22 -2 -18 -10 -24 -8 -40 11 -10 12 -18 29 -18 36 0 10 -7 13 -25 8 -18 -5
-25 -2 -25 9 0 8 6 18 13 20 7 3 3 6 -8 8 -11 1 -24 3 -30 4 -5 2 -15 3 -21 4
-10 1 -20 23 -81 181 -14 36 -31 79 -38 95 -7 17 -10 49 -8 73 3 24 0 48 -6
56 -6 7 -8 21 -5 31 5 11 1 21 -8 26 -21 12 -23 97 -3 119 9 10 15 21 13 26
-1 5 1 19 5 30 6 17 18 22 60 27 90 9 296 130 326 192 8 17 14 51 13 77 -3 68
34 139 117 227 l70 74 56 -18 c76 -24 197 -18 246 13 66 40 78 57 69 96 -9 43
-60 153 -103 223 -38 65 -68 77 -164 68 -37 -4 -130 -2 -205 5 -75 6 -156 11
-180 11 -24 0 -83 4 -133 9 -122 13 -362 18 -405 10z m-1656 -1346 c9 -24 2
-26 -12 -4 -7 11 -8 20 -3 20 5 0 12 -7 15 -16z m2916 -5290 c0 -8 -4 -12 -10
-9 -5 3 -10 13 -10 21 0 8 5 12 10 9 6 -3 10 -13 10 -21z"/>
</g>
</svg>
